<?xml version="1.0" encoding="utf-8"?>
<!-- Generator: Adobe Illustrator 15.1.0, SVG Export Plug-In . SVG Version: 6.00 Build 0)  -->
<!DOCTYPE svg PUBLIC "-//W3C//DTD SVG 1.1//EN" "http://www.w3.org/Graphics/SVG/1.1/DTD/svg11.dtd">
<svg version="1.1" id="Layer_1" xmlns="http://www.w3.org/2000/svg" xmlns:xlink="http://www.w3.org/1999/xlink" x="0px" y="0px"
	 width="200px" height="100px" viewBox="0 0 200 100" enable-background="new 0 0 200 100" xml:space="preserve">
<polygon fill="#FFFFFF" points="165.754,27.999 170.81,22.908 165.754,17.817 170.042,17.817 175.097,22.908 170.042,27.999 "/>
<polygon fill="#FFFFFF" points="157.411,27.999 162.468,22.908 157.411,17.817 161.7,17.817 166.754,22.908 161.7,27.999 "/>
<polygon fill="#FFFFFF" points="118.066,27.999 123.122,22.908 118.066,17.817 122.354,17.817 127.409,22.908 122.354,27.999 "/>
<polygon fill="#040000" points="165.754,81.07 170.81,75.98 165.754,70.89 170.042,70.89 175.097,75.98 170.042,81.07 "/>
<polygon fill="#040000" points="157.411,81.07 162.468,75.98 157.411,70.89 161.7,70.89 166.754,75.98 161.7,81.07 "/>
<polygon fill="#040000" points="118.066,81.07 123.122,75.98 118.066,70.89 122.354,70.89 127.409,75.98 122.354,81.07 "/>
<polygon fill="#FFFFFF" points="81.953,27.999 76.897,22.908 81.953,17.817 77.665,17.817 72.61,22.908 77.665,27.999 "/>
<polygon fill="#FFFFFF" points="73.61,27.999 68.554,22.908 73.61,17.817 69.321,17.817 64.268,22.908 69.321,27.999 "/>
<polygon fill="#FFFFFF" points="34.266,27.999 29.21,22.908 34.266,17.817 29.978,17.817 24.923,22.908 29.978,27.999 "/>
<polygon fill="#040000" points="81.953,81.07 76.897,75.98 81.953,70.89 77.665,70.89 72.61,75.98 77.665,81.07 "/>
<polygon fill="#040000" points="73.61,81.07 68.554,75.98 73.61,70.89 69.321,70.89 64.268,75.98 69.321,81.07 "/>
<polygon fill="#040000" points="34.266,81.07 29.21,75.98 34.266,70.89 29.978,70.89 24.923,75.98 29.978,81.07 "/>
</svg>
