<?xml version="1.0" encoding="utf-8"?>
<!-- Generator: Adobe Illustrator 15.1.0, SVG Export Plug-In . SVG Version: 6.00 Build 0)  -->
<!DOCTYPE svg PUBLIC "-//W3C//DTD SVG 1.1//EN" "http://www.w3.org/Graphics/SVG/1.1/DTD/svg11.dtd">
<svg version="1.1" id="Layer_1" xmlns="http://www.w3.org/2000/svg" xmlns:xlink="http://www.w3.org/1999/xlink" x="0px" y="0px"
	 width="12.998px" height="12.998px" viewBox="0 0 12.998 12.998" enable-background="new 0 0 12.998 12.998" xml:space="preserve">
<g>
	<polygon fill="#E71E16" points="10.998,1.03 9.969,1.03 9.969,0 1.031,0 1.031,1.03 0,1.03 0,9.968 1.031,9.968 1.031,10.998 
		9.969,10.998 9.969,9.968 10.998,9.968 	"/>
	<path fill="#FFFFFF" d="M7.516,8.328c-0.143,0-0.281-0.062-0.379-0.174L3.984,4.513v3.315c0,0.275-0.225,0.5-0.5,0.5
		s-0.5-0.225-0.5-0.5V3.172c0-0.209,0.131-0.396,0.324-0.469c0.199-0.071,0.418-0.017,0.555,0.142l3.152,3.642V3.172
		c0-0.277,0.225-0.5,0.5-0.5s0.5,0.223,0.5,0.5v4.656c0,0.209-0.131,0.396-0.324,0.469C7.633,8.318,7.574,8.328,7.516,8.328"/>
</g>
</svg>
